<?xml version="1.0" standalone="no"?><!DOCTYPE svg PUBLIC "-//W3C//DTD SVG 1.1//EN" "http://www.w3.org/Graphics/SVG/1.1/DTD/svg11.dtd"><svg t="1570874321371" class="icon" viewBox="0 0 1282 1024" version="1.1" xmlns="http://www.w3.org/2000/svg" p-id="1122" xmlns:xlink="http://www.w3.org/1999/xlink" width="25" height="20"><defs><style type="text/css"></style></defs><path d="M1276.284799 473.062139l-150.178456 149.495828a33.244049 33.244049 0 0 1-44.848749 0l-149.427564-149.495828c-17.748363-20.47888-5.870612-27.987803 6.826293-39.592502h136.52587A443.2995 443.2995 0 0 0 254.456926 304.45269l-74.679651-29.353062a523.440185 523.440185 0 0 1 976.15997 158.370009h113.862576a26.417756 26.417756 0 0 1 6.484978 39.592502zM203.669302 440.97856l150.178457 149.495827a26.486019 26.486019 0 0 1-6.484978 39.592503H217.048838a443.709077 443.709077 0 0 0 791.850045 120.825395l75.430543 29.353062a523.235396 523.235396 0 0 1-949.332636-150.178457H15.604917c-12.355591-11.604699-24.233342-19.113622-6.826294-39.592503l149.427565-149.495827a33.244049 33.244049 0 0 1 45.463114 0z" p-id="1123" fill="#ffffff"></path></svg>