<?xml version="1.0" standalone="no"?><!DOCTYPE svg PUBLIC "-//W3C//DTD SVG 1.1//EN" "http://www.w3.org/Graphics/SVG/1.1/DTD/svg11.dtd"><svg t="1567668881288" class="icon" viewBox="0 0 1024 1024" version="1.1" xmlns="http://www.w3.org/2000/svg" p-id="2415" xmlns:xlink="http://www.w3.org/1999/xlink" width="200" height="200"><defs><style type="text/css"></style></defs><path d="M870.4 563.2h-175.616a1767.424 1767.424 0 0 1-144.384 187.904l-38.4 42.496-38.4-42.496A1767.424 1767.424 0 0 1 329.216 563.2H153.6l-153.6 460.8h1024z" p-id="2416"></path><path d="M768 256A256 256 0 0 0 256 256c0 175.104 256 460.8 256 460.8s256-285.696 256-460.8zM409.6 256a102.4 102.4 0 1 1 102.4 102.4 102.4 102.4 0 0 1-102.4-102.4z" p-id="2417"></path></svg>