<?xml version="1.0" standalone="no"?><!DOCTYPE svg PUBLIC "-//W3C//DTD SVG 1.1//EN" "http://www.w3.org/Graphics/SVG/1.1/DTD/svg11.dtd"><svg t="1567679934135" class="icon" viewBox="0 0 1024 1024" version="1.1" xmlns="http://www.w3.org/2000/svg" p-id="2076" xmlns:xlink="http://www.w3.org/1999/xlink" width="200" height="200"><defs><style type="text/css"></style></defs><path d="M759.616 480.828l-40.67-39.274 38.901-40.283a8 8 0 0 1 11.312-0.198l66.18 63.909-0.079 0.08 39.297 37.95a8 8 0 0 1 0.198 11.312L766.388 626.54l-40.283-38.901a8 8 0 0 1-0.197-11.312l30.418-31.5H634v-56a8 8 0 0 1 8-8h117.616zM225 305c-44.183 0-80-35.817-80-80s35.817-80 80-80 80 35.817 80 80-35.817 80-80 80z m128-160h526v144c0 8.837-7.163 16-16 16H337V161c0-8.837 7.163-16 16-16zM161 719h718v144c0 8.837-7.163 16-16 16H145V735c0-8.837 7.163-16 16-16z m0-287h440v144c0 8.837-7.163 16-16 16H145V448c0-8.837 7.163-16 16-16z" p-id="2077"></path></svg>