<?xml version="1.0" standalone="no"?><!DOCTYPE svg PUBLIC "-//W3C//DTD SVG 1.1//EN" "http://www.w3.org/Graphics/SVG/1.1/DTD/svg11.dtd"><svg t="1567668748692" class="icon" viewBox="0 0 1024 1024" version="1.1" xmlns="http://www.w3.org/2000/svg" p-id="1492" xmlns:xlink="http://www.w3.org/1999/xlink" width="200" height="200"><defs><style type="text/css"></style></defs><path d="M512 0C228.072727 0 0 228.072727 0 512s228.072727 512 512 512 512-228.072727 512-512S795.927273 0 512 0z m221.090909 532.945455l-325.818182 186.181818c-11.636364 6.981818-25.6 2.327273-32.581818-9.309091-2.327273-2.327273-2.327273-6.981818-2.327273-11.636364V325.818182c0-4.654545 0-6.981818 2.327273-9.309091 2.327273-4.654545 6.981818-9.309091 11.636364-9.309091 6.981818-2.327273 13.963636-2.327273 20.945454 0l323.490909 186.181818c4.654545 2.327273 6.981818 4.654545 9.309091 9.309091 9.309091 9.309091 4.654545 23.272727-6.981818 30.254546z" fill="#666666" p-id="1493"></path></svg>